<svg width="273" height="48" viewBox="0 0 273 48" fill="none" xmlns="http://www.w3.org/2000/svg">
<path d="M18.8 47.512C17.648 47.512 16.7093 47.2347 15.984 46.68C15.3013 46.1253 14.7467 45.2507 14.32 44.056L0.944 6.232C0.474667 4.86666 0.56 3.71466 1.2 2.776C1.88267 1.83733 3.01333 1.368 4.592 1.368C5.744 1.368 6.64 1.64533 7.28 2.2C7.92 2.712 8.432 3.544 8.816 4.696L20.336 38.872H17.776L29.808 4.76C30.2347 3.608 30.768 2.75466 31.408 2.2C32.048 1.64533 32.88 1.368 33.904 1.368C34.928 1.368 35.7387 1.64533 36.336 2.2C36.9333 2.75466 37.4453 3.62933 37.872 4.824L49.52 38.872H47.28L58.992 4.696C59.376 3.58666 59.888 2.75466 60.528 2.2C61.168 1.64533 62.0427 1.368 63.152 1.368C64.5173 1.368 65.52 1.83733 66.16 2.776C66.8 3.71466 66.8853 4.86666 66.416 6.232L52.912 44.12C52.4853 45.272 51.9307 46.1253 51.248 46.68C50.5653 47.2347 49.648 47.512 48.496 47.512C47.344 47.512 46.4267 47.2347 45.744 46.68C45.0613 46.1253 44.5067 45.2507 44.08 44.056L32.944 12.312H34.416L23.152 44.12C22.7253 45.272 22.1707 46.1253 21.488 46.68C20.848 47.2347 19.952 47.512 18.8 47.512ZM78.6215 47.64C76.3602 47.64 74.3335 47.2133 72.5415 46.36C70.7922 45.464 69.4055 44.2693 68.3815 42.776C67.4002 41.2827 66.9095 39.5973 66.9095 37.72C66.9095 35.416 67.5068 33.6027 68.7015 32.28C69.8962 30.9147 71.8375 29.9333 74.5255 29.336C77.2135 28.7387 80.8188 28.44 85.3415 28.44H88.5415V33.048H85.4055C82.7602 33.048 80.6482 33.176 79.0695 33.432C77.4908 33.688 76.3602 34.136 75.6775 34.776C75.0375 35.3733 74.7175 36.2267 74.7175 37.336C74.7175 38.744 75.2082 39.896 76.1895 40.792C77.1708 41.688 78.5362 42.136 80.2855 42.136C81.6935 42.136 82.9308 41.816 83.9975 41.176C85.1068 40.4933 85.9815 39.576 86.6215 38.424C87.2615 37.272 87.5815 35.9493 87.5815 34.456V27.096C87.5815 24.9627 87.1122 23.4267 86.1735 22.488C85.2348 21.5493 83.6562 21.08 81.4375 21.08C80.2002 21.08 78.8562 21.2293 77.4055 21.528C75.9975 21.8267 74.5042 22.3387 72.9255 23.064C72.1148 23.448 71.3895 23.5547 70.7495 23.384C70.1522 23.2133 69.6828 22.872 69.3415 22.36C69.0002 21.8053 68.8295 21.208 68.8295 20.568C68.8295 19.928 69.0002 19.3093 69.3415 18.712C69.6828 18.072 70.2588 17.6027 71.0695 17.304C73.0322 16.4933 74.9095 15.9173 76.7015 15.576C78.5362 15.2347 80.2002 15.064 81.6935 15.064C84.7655 15.064 87.2828 15.5333 89.2455 16.472C91.2508 17.4107 92.7442 18.84 93.7255 20.76C94.7068 22.6373 95.1975 25.0693 95.1975 28.056V43.416C95.1975 44.7387 94.8775 45.7627 94.2375 46.488C93.5975 47.1707 92.6802 47.512 91.4855 47.512C90.2908 47.512 89.3522 47.1707 88.6695 46.488C88.0295 45.7627 87.7095 44.7387 87.7095 43.416V40.344H88.2215C87.9228 41.8373 87.3255 43.1387 86.4295 44.248C85.5762 45.3147 84.4882 46.1467 83.1655 46.744C81.8428 47.3413 80.3282 47.64 78.6215 47.64ZM106.134 47.512C104.811 47.512 103.787 47.1707 103.062 46.488C102.379 45.7627 102.038 44.7387 102.038 43.416V19.224C102.038 17.9013 102.379 16.8987 103.062 16.216C103.744 15.5333 104.704 15.192 105.942 15.192C107.179 15.192 108.139 15.5333 108.822 16.216C109.504 16.8987 109.846 17.9013 109.846 19.224V23.256H109.206C109.803 20.696 110.976 18.7547 112.726 17.432C114.475 16.1093 116.8 15.32 119.702 15.064C120.598 14.9787 121.302 15.2133 121.814 15.768C122.368 16.28 122.688 17.0907 122.774 18.2C122.859 19.2667 122.603 20.1413 122.006 20.824C121.451 21.464 120.598 21.848 119.446 21.976L118.038 22.104C115.435 22.36 113.472 23.1707 112.15 24.536C110.827 25.8587 110.166 27.736 110.166 30.168V43.416C110.166 44.7387 109.824 45.7627 109.142 46.488C108.459 47.1707 107.456 47.512 106.134 47.512ZM140.744 47.64C137.203 47.64 134.152 46.9787 131.592 45.656C129.032 44.3333 127.048 42.456 125.64 40.024C124.275 37.592 123.592 34.712 123.592 31.384C123.592 28.1413 124.253 25.304 125.576 22.872C126.941 20.44 128.797 18.5413 131.144 17.176C133.533 15.768 136.243 15.064 139.272 15.064C141.491 15.064 143.475 15.4267 145.224 16.152C147.016 16.8773 148.531 17.9227 149.768 19.288C151.048 20.6533 152.008 22.3173 152.648 24.28C153.331 26.2 153.672 28.376 153.672 30.808C153.672 31.576 153.395 32.1733 152.84 32.6C152.328 32.984 151.581 33.176 150.6 33.176H130.056V28.568H148.04L147.016 29.528C147.016 27.5653 146.717 25.9227 146.12 24.6C145.565 23.2773 144.733 22.2747 143.624 21.592C142.557 20.8667 141.213 20.504 139.592 20.504C137.8 20.504 136.264 20.9307 134.984 21.784C133.747 22.5947 132.787 23.768 132.104 25.304C131.464 26.7973 131.144 28.5893 131.144 30.68V31.128C131.144 34.6267 131.955 37.2507 133.576 39C135.24 40.7067 137.672 41.56 140.872 41.56C141.981 41.56 143.219 41.432 144.584 41.176C145.992 40.8773 147.315 40.3867 148.552 39.704C149.448 39.192 150.237 38.9787 150.92 39.064C151.603 39.1067 152.136 39.3413 152.52 39.768C152.947 40.1947 153.203 40.728 153.288 41.368C153.373 41.9653 153.245 42.584 152.904 43.224C152.605 43.864 152.072 44.4187 151.304 44.888C149.811 45.8267 148.083 46.5307 146.12 47C144.2 47.4267 142.408 47.64 140.744 47.64ZM163.656 47C162.333 47 161.309 46.6373 160.584 45.912C159.858 45.144 159.496 44.0987 159.496 42.776V5.848C159.496 4.48267 159.837 3.45867 160.52 2.776C161.245 2.05067 162.269 1.688 163.592 1.688C164.914 1.688 165.917 2.05067 166.6 2.776C167.325 3.45867 167.688 4.48267 167.688 5.848V40.024H186.248C187.4 40.024 188.274 40.3227 188.872 40.92C189.512 41.5173 189.832 42.3707 189.832 43.48C189.832 44.5893 189.512 45.464 188.872 46.104C188.274 46.7013 187.4 47 186.248 47H163.656ZM197.353 47.448C196.073 47.448 195.092 47.064 194.409 46.296C193.726 45.528 193.385 44.4613 193.385 43.096V19.608C193.385 18.2 193.726 17.1333 194.409 16.408C195.092 15.64 196.073 15.256 197.353 15.256C198.633 15.256 199.614 15.64 200.297 16.408C201.022 17.1333 201.385 18.2 201.385 19.608V43.096C201.385 44.4613 201.044 45.528 200.361 46.296C199.678 47.064 198.676 47.448 197.353 47.448ZM197.353 9.304C195.86 9.304 194.686 8.94133 193.833 8.216C193.022 7.448 192.617 6.40267 192.617 5.08C192.617 3.71466 193.022 2.66933 193.833 1.944C194.686 1.21866 195.86 0.855999 197.353 0.855999C198.889 0.855999 200.062 1.21866 200.873 1.944C201.684 2.66933 202.089 3.71466 202.089 5.08C202.089 6.40267 201.684 7.448 200.873 8.216C200.062 8.94133 198.889 9.304 197.353 9.304ZM212.386 47.512C211.106 47.512 210.124 47.1707 209.442 46.488C208.759 45.7627 208.418 44.7387 208.418 43.416V19.224C208.418 17.9013 208.759 16.8987 209.442 16.216C210.124 15.5333 211.084 15.192 212.322 15.192C213.559 15.192 214.519 15.5333 215.202 16.216C215.884 16.8987 216.226 17.9013 216.226 19.224V23.576L215.522 21.976C216.46 19.7147 217.911 18.008 219.874 16.856C221.879 15.6613 224.14 15.064 226.658 15.064C229.175 15.064 231.244 15.5333 232.866 16.472C234.487 17.4107 235.703 18.84 236.514 20.76C237.324 22.6373 237.73 25.0267 237.73 27.928V43.416C237.73 44.7387 237.388 45.7627 236.706 46.488C236.023 47.1707 235.042 47.512 233.762 47.512C232.482 47.512 231.479 47.1707 230.754 46.488C230.071 45.7627 229.73 44.7387 229.73 43.416V28.312C229.73 25.88 229.26 24.1093 228.322 23C227.426 21.8907 226.018 21.336 224.098 21.336C221.751 21.336 219.874 22.0827 218.466 23.576C217.1 25.0267 216.418 26.968 216.418 29.4V43.416C216.418 46.1467 215.074 47.512 212.386 47.512ZM248.543 47.512C247.263 47.512 246.282 47.1707 245.599 46.488C244.916 45.7627 244.575 44.7387 244.575 43.416V5.4C244.575 4.07733 244.916 3.07466 245.599 2.392C246.282 1.70933 247.263 1.368 248.543 1.368C249.823 1.368 250.804 1.70933 251.487 2.392C252.212 3.07466 252.575 4.07733 252.575 5.4V29.016H252.703L263.263 17.88C264.116 17.0267 264.863 16.3653 265.503 15.896C266.143 15.4267 267.018 15.192 268.127 15.192C269.236 15.192 270.068 15.4907 270.623 16.088C271.22 16.6427 271.519 17.3253 271.519 18.136C271.519 18.9467 271.135 19.7573 270.367 20.568L259.231 32.344V29.016L271.455 42.2C272.223 43.0107 272.564 43.8427 272.479 44.696C272.436 45.5067 272.095 46.1893 271.455 46.744C270.815 47.256 270.004 47.512 269.023 47.512C267.828 47.512 266.868 47.2773 266.143 46.808C265.46 46.3387 264.692 45.6347 263.839 44.696L252.703 33.048H252.575V43.416C252.575 46.1467 251.231 47.512 248.543 47.512Z" fill="#7C12C9"/>
</svg>
